# xmcd CD database file
#
# Track frame offsets:
#	150
#	13295
#	24570
#	40475
#	51492
#	63117
#	83497
#	94235
#	109107
#	120827
#	131595
#	148862
#	163047
#	177857
#	191537
#	202855
#	216980
#	226727
#	242637
#	254182
#
# Disc length: 3554 seconds
#
# Revision: 0
# Processed by: cddbd v1.4PL0 Copyright (c) Steve Scherf et al.
# Submitted via: CDex 1.40Release
#
DISCID=1a0de014
DTITLE=KENNY ROGERS - THE FIRST EDITION COLLECTION
DYEAR=1900
DGENRE=Country
TTITLE0=RUBY DON0T TAKE YOUR LOVE TO TOWN
TTITLE1=HURRY UP LOVE
TTITLE2=I FOUND A REASON
TTITLE3=ALWAYS LEAVING ALWAYS GONE
TTITLE4=A POEM FOR MY LITTLE LADY
TTITLE5=LAY IT DOWN
TTITLE6=GOOD TIME LIBERATOR
TTITLE7=ALL GOD'S LONELY CHILDREN
TTITLE8=CALICO SILVER
TTITLE9=LAST FEW THREADS OF LOVE
TTITLE10=SOMETHING'S BURNING
TTITLE11=LOSER
TTITLE12=AFTER ALL ( I LIVE MY LIFE)
TTITLE13=I'M GOING TO SING A SAD SONG SUZY
TTITLE14=IF WISHES WERE HORSES
TTITLE15=SUNSHINE
TTITLE16=ONCE AGAIN SHE'S ALL ALONE
TTITLE17=TULSA TURNAROUND
TTITLE18=ME AND BOBBY McGEE
TTITLE19=REUBEN JAMES
EXTD=ID3G: 2
EXTT0=
EXTT1=
EXTT2=
EXTT3=
EXTT4=
EXTT5=
EXTT6=
EXTT7=
EXTT8=
EXTT9=
EXTT10=
EXTT11=
EXTT12=
EXTT13=
EXTT14=
EXTT15=
EXTT16=
EXTT17=
EXTT18=
EXTT19=
PLAYORDER=
